<?xml version="1.0" encoding="UTF-8"?>
<svg xmlns="http://www.w3.org/2000/svg" xmlns:xlink="http://www.w3.org/1999/xlink" viewBox="0 0 19.14 23.66">
  <defs>
    <style>
      .cls-1 {
        fill: none;
      }

      .cls-2 {
        fill: url(#linear-gradient-8);
      }

      .cls-3 {
        fill: url(#linear-gradient-6);
      }

      .cls-4 {
        fill: url(#linear-gradient-9);
      }

      .cls-5 {
        fill: url(#linear-gradient-2);
      }

      .cls-6 {
        fill: url(#linear-gradient-11);
      }

      .cls-6, .cls-7, .cls-8, .cls-9, .cls-10, .cls-11, .cls-12, .cls-13, .cls-14 {
        mix-blend-mode: overlay;
      }

      .cls-6, .cls-7, .cls-12, .cls-13, .cls-14 {
        opacity: .48;
      }

      .cls-7 {
        fill: url(#linear-gradient-13);
      }

      .cls-15 {
        fill: url(#linear-gradient);
      }

      .cls-16 {
        isolation: isolate;
      }

      .cls-8 {
        fill: url(#linear-gradient-5);
      }

      .cls-17 {
        fill: #ffb74c;
      }

      .cls-9 {
        fill: url(#linear-gradient-21);
      }

      .cls-10 {
        fill: url(#linear-gradient-14);
      }

      .cls-18 {
        fill: url(#linear-gradient-10);
      }

      .cls-19 {
        fill: url(#linear-gradient-12);
      }

      .cls-20 {
        fill: url(#linear-gradient-19);
      }

      .cls-21 {
        fill: url(#linear-gradient-20);
      }

      .cls-22 {
        fill: url(#linear-gradient-15);
      }

      .cls-23 {
        fill: url(#linear-gradient-16);
      }

      .cls-24 {
        fill: url(#linear-gradient-17);
      }

      .cls-25 {
        fill: url(#linear-gradient-18);
      }

      .cls-26 {
        fill: #bf4e6c;
      }

      .cls-27 {
        fill: #bf3528;
      }

      .cls-28 {
        clip-path: url(#clippath);
      }

      .cls-12 {
        fill: url(#linear-gradient-3);
      }

      .cls-13 {
        fill: url(#linear-gradient-4);
      }

      .cls-14 {
        fill: url(#linear-gradient-7);
      }
    </style>
    <linearGradient id="linear-gradient" x1="98.96" y1="-54.25" x2="100.93" y2="-38.15" gradientTransform="translate(-96.88 22.56) rotate(20)" gradientUnits="userSpaceOnUse">
      <stop offset="0" stop-color="#ffd9e7"/>
      <stop offset=".17" stop-color="#ffd9cb"/>
      <stop offset=".38" stop-color="#ffdaae"/>
      <stop offset=".59" stop-color="#ffdb9a"/>
      <stop offset=".8" stop-color="#ffdb8e"/>
      <stop offset="1" stop-color="#ffdc8a"/>
    </linearGradient>
    <linearGradient id="linear-gradient-2" x1="96.47" y1="-54.56" x2="98.23" y2="-40.11" xlink:href="#linear-gradient"/>
    <linearGradient id="linear-gradient-3" x1="48.8" y1="-534.81" x2="72.08" y2="-535.33" gradientTransform="translate(-234.93 487.92) rotate(21.65)" gradientUnits="userSpaceOnUse">
      <stop offset=".07" stop-color="#000"/>
      <stop offset="1" stop-color="#000" stop-opacity="0"/>
    </linearGradient>
    <linearGradient id="linear-gradient-4" x1="38.8" y1="-530.34" x2="80.62" y2="-531.28" xlink:href="#linear-gradient-3"/>
    <linearGradient id="linear-gradient-5" x1="96.49" y1="-54.37" x2="98.21" y2="-40.34" xlink:href="#linear-gradient"/>
    <linearGradient id="linear-gradient-6" x1="96.34" y1="-55.09" x2="98.15" y2="-40.3" xlink:href="#linear-gradient"/>
    <linearGradient id="linear-gradient-7" x1="39.39" y1="-526.77" x2="82.06" y2="-527.73" xlink:href="#linear-gradient-3"/>
    <linearGradient id="linear-gradient-8" x1="97.41" y1="-54.48" x2="99.12" y2="-40.45" xlink:href="#linear-gradient"/>
    <linearGradient id="linear-gradient-9" x1="92.87" y1="-53.93" x2="94.58" y2="-39.89" xlink:href="#linear-gradient"/>
    <linearGradient id="linear-gradient-10" x1="101.47" y1="-54.98" x2="103.18" y2="-40.94" xlink:href="#linear-gradient"/>
    <linearGradient id="linear-gradient-11" x1="41.17" y1="-526.81" x2="76.94" y2="-527.61" xlink:href="#linear-gradient-3"/>
    <clipPath id="clippath">
      <path class="cls-1" d="M15.98,20.41c-.58,1.47-4.07,1.47-7.79,0-3.72-1.48-6.26-3.87-5.67-5.34.46-1.16,2.72-1.41,5.48-.74.74.19,1.52.43,2.31.75.62.25,1.19.51,1.74.8,2.73,1.44,4.42,3.31,3.94,4.55Z"/>
    </clipPath>
    <linearGradient id="linear-gradient-12" x1="96.6" y1="-55.4" x2="98.46" y2="-40.19" xlink:href="#linear-gradient"/>
    <linearGradient id="linear-gradient-13" x1="53.75" y1="-529.43" x2="52.7" y2="-524.97" xlink:href="#linear-gradient-3"/>
    <linearGradient id="linear-gradient-14" x1="96.72" y1="-54.4" x2="98.43" y2="-40.36" xlink:href="#linear-gradient"/>
    <linearGradient id="linear-gradient-15" x1="97.37" y1="-54.48" x2="99.08" y2="-40.44" xlink:href="#linear-gradient"/>
    <linearGradient id="linear-gradient-16" x1="97.35" y1="-54.47" x2="99.06" y2="-40.44" xlink:href="#linear-gradient"/>
    <linearGradient id="linear-gradient-17" x1="94.79" y1="-54.16" x2="96.5" y2="-40.13" xlink:href="#linear-gradient"/>
    <linearGradient id="linear-gradient-18" x1="95.3" y1="-54.22" x2="97.01" y2="-40.19" xlink:href="#linear-gradient"/>
    <linearGradient id="linear-gradient-19" x1="98.57" y1="-54.62" x2="100.29" y2="-40.59" xlink:href="#linear-gradient"/>
    <linearGradient id="linear-gradient-20" x1="98.12" y1="-54.57" x2="99.84" y2="-40.53" xlink:href="#linear-gradient"/>
    <linearGradient id="linear-gradient-21" x1="96.75" y1="-54.4" x2="98.46" y2="-40.37" xlink:href="#linear-gradient"/>
  </defs>
  <g class="cls-16">
    <g id="Layer_2" data-name="Layer 2">
      <g id="Layer_1-2" data-name="Layer 1">
        <g>
          <g>
            <path class="cls-15" d="M15.56,4.28c-.25,0-.48-.05-.71-.14l-.33-.13c-1-.4-1.49-1.53-1.09-2.53.29-.73,1.02-1.23,1.81-1.23.25,0,.49.05.71.14l.33.13c1,.4,1.49,1.53,1.09,2.53-.29.73-1.02,1.23-1.81,1.23Z"/>
            <path class="cls-26" d="M15.24.51c.21,0,.42.04.62.12l.33.13c.87.34,1.29,1.33.95,2.2-.26.66-.9,1.07-1.58,1.07-.21,0-.42-.04-.62-.12l-.33-.13c-.87-.34-1.29-1.33-.95-2.2.26-.66.9-1.07,1.58-1.07M15.24,0h0c-.9,0-1.72.56-2.05,1.39-.22.54-.21,1.14.03,1.68s.66.96,1.21,1.17l.33.13c.26.1.53.15.81.15.9,0,1.72-.56,2.05-1.39.45-1.13-.11-2.41-1.23-2.86l-.33-.13c-.26-.1-.53-.15-.81-.15h0Z"/>
          </g>
          <g>
            <path class="cls-5" d="M16.94,20.99s-.06,0-.09-.02L1.6,14.92c-.07-.03-.13-.09-.15-.16-.02-.07-.01-.15.03-.22.01-.02,1.43-2.16,3.1-4.53.23-.33,1.29-1.83,1.29-1.83,1.85-2.58,3.04-4.09,3.65-4.6.91-.77,2.17-1.2,3.54-1.2.43,0,.84.04,1.25.12.33.05.65.14.94.25.99.39,2.31,1.4,3.04,2.77.27.5.46,1.02.54,1.56.01.07.02.15.03.22.11.92-.14,3.47-.77,7.77-.43,2.97-.89,5.69-.9,5.72-.01.08-.06.14-.13.18-.04.02-.08.03-.12.03Z"/>
            <path class="cls-26" d="M13.06,2.63c.42,0,.83.04,1.2.11.34.06.65.14.9.24.93.37,2.2,1.32,2.9,2.65.25.45.43.94.52,1.48.01.06.02.13.03.2.13,1.11-.31,4.58-.77,7.71-.43,3-.9,5.71-.9,5.71L1.69,14.69s1.41-2.13,3.09-4.52c.23-.33.46-.66.69-.99.2-.28.4-.56.6-.84,1.48-2.07,2.92-3.97,3.61-4.56.98-.84,2.25-1.14,3.38-1.14M13.06,2.13h0c-1.44,0-2.75.45-3.71,1.26-.62.53-1.83,2.05-3.69,4.65l-.32.45-.28.4c-.23.33-.47.67-.7,1-1.66,2.37-3.08,4.51-3.1,4.53-.08.13-.11.29-.06.43.05.15.15.26.3.32l15.25,6.05c.06.02.12.04.19.04.09,0,.17-.02.25-.06.13-.07.23-.21.25-.36,0-.03.47-2.75.9-5.73.63-4.32.88-6.89.77-7.84,0-.06-.02-.15-.03-.23-.09-.55-.28-1.11-.57-1.63-.81-1.52-2.21-2.5-3.16-2.88-.31-.12-.66-.21-1.01-.27-.4-.08-.84-.12-1.28-.12h0Z"/>
          </g>
          <path class="cls-12" d="M16.88,20.77l-8.49-3.37L14.19,2.78c.34.05.65.14.9.24,1.29.51,3.2,2.14,3.45,4.33.25,2.19-1.67,13.43-1.67,13.43Z"/>
          <path class="cls-13" d="M16.95,20.74L1.69,14.69s1.82-2.75,3.79-5.52c5.35.58,9.66,3.45,12.37,5.85-.44,3.01-.9,5.72-.9,5.72Z"/>
          <path class="cls-8" d="M16.95,20.74l-.18-.07-1.05-2.18s1.95-10.29,1.89-11.91c-.06-1.63-2.85-2.89-4.39-2.86-1.25.04-7.42,8.55-9.67,11.71l-1.85-.74s1.82-2.75,3.79-5.52c1.67-2.37,3.43-4.74,4.21-5.4,1.35-1.14,3.23-1.29,4.57-1.02.34.05.65.14.9.24,1.29.51,3.2,2.14,3.45,4.33.13,1.12-.31,4.58-.77,7.71-.44,3.01-.9,5.72-.9,5.72Z"/>
          <g>
            <path class="cls-3" d="M13.24,23.41c-1.27,0-2.7-.23-4.15-.65-.53-.16-1.08-.35-1.61-.56-1-.4-1.92-.86-2.74-1.37-.69-.4-1.35-.88-1.94-1.39-.69-.59-1.25-1.2-1.67-1.81-.26-.37-.45-.71-.58-1.04-.26-.61-.36-1.23-.27-1.78.04-.21.08-.4.15-.56.55-1.39,2.28-2.18,4.74-2.18,1.35,0,2.86.24,4.37.7l.28.08c.41.13.8.28,1.2.44.42.17.83.34,1.21.53,1.62.77,3.02,1.73,4.06,2.76.39.37.75.79,1.07,1.25.77,1.11,1.05,2.18.8,3.1,0,.09-.04.21-.08.32-.27.69-.84,1.23-1.69,1.61-.66.31-1.49.49-2.48.54-.21.01-.43.02-.66.02Z"/>
            <path class="cls-26" d="M5.18,12.31c1.3,0,2.77.23,4.29.69.1.02.19.06.29.09.39.13.77.27,1.18.43.41.16.81.34,1.19.53,1.62.78,2.99,1.72,4,2.72.42.39.76.81,1.04,1.21.7,1.01,1,2.02.76,2.89-.01.1-.04.2-.08.29-.26.64-.8,1.14-1.56,1.47-.64.31-1.45.48-2.39.52-.21.01-.43.02-.65.02-1.23,0-2.63-.22-4.07-.64-.52-.15-1.06-.34-1.59-.55-.98-.39-1.89-.84-2.7-1.35-.71-.42-1.35-.88-1.91-1.37-.67-.57-1.22-1.16-1.63-1.77-.23-.33-.42-.66-.55-.99-.24-.56-.34-1.13-.25-1.65.03-.17.07-.34.13-.51.53-1.33,2.25-2.02,4.51-2.02M5.18,11.81h0c-2.57,0-4.39.85-4.98,2.34-.07.18-.12.38-.16.61-.1.6,0,1.27.29,1.93.13.34.33.69.6,1.08.43.63,1.01,1.25,1.72,1.86.6.52,1.27,1,1.98,1.42.82.51,1.75.98,2.77,1.38.55.22,1.1.41,1.64.57,1.47.43,2.93.66,4.22.66.23,0,.46,0,.68-.02,1.01-.04,1.88-.23,2.57-.56.9-.4,1.51-.99,1.81-1.74.05-.12.08-.24.1-.37.26-.98-.03-2.12-.84-3.28-.33-.48-.7-.91-1.11-1.29-1.05-1.04-2.48-2.02-4.12-2.81-.35-.18-.74-.35-1.22-.54-.41-.16-.8-.31-1.2-.44-.07-.02-.11-.03-.14-.04-.06-.02-.12-.04-.17-.05-1.51-.46-3.05-.71-4.42-.71h0Z"/>
          </g>
          <path class="cls-14" d="M17.84,21.15c-.92,2.32-5.52,2.7-10.26.82-2.84-1.13-5.09-2.81-6.24-4.49,1.38.68,3.02,1.39,3.38,1.06.62-.58-.81-2.92-.81-2.92,0,0,5.59-1.26,5.57-2.61.49.15.97.32,1.46.51,4.74,1.88,7.83,5.29,6.91,7.63Z"/>
          <g class="cls-11">
            <path class="cls-2" d="M17.15,17.97l-12.27,2.64c-.71-.42-1.35-.88-1.91-1.37,3.81-.71,9.11-1.71,13.14-2.48.42.39.76.81,1.04,1.21Z"/>
            <path class="cls-4" d="M12.12,14.04L.79,16.49c-.24-.56-.34-1.13-.25-1.65,2.98-.56,6.34-1.2,9.22-1.75.39.13.77.27,1.18.43.41.16.81.34,1.19.53Z"/>
            <path class="cls-18" d="M17.84,21.15c-.26.64-.8,1.14-1.56,1.47l-2.39.52c-1.38.09-3.02-.12-4.72-.62,3.05-.57,6.23-1.16,8.74-1.66-.01.1-.04.2-.08.29Z"/>
          </g>
          <g>
            <g>
              <path class="cls-17" d="M13.27,21.77c-1.5,0-3.34-.4-5.17-1.12-.65-.26-1.32-.57-1.99-.93-2.84-1.57-4.34-3.43-3.82-4.74.15-.37.44-.67.87-.88.52-.26,1.23-.39,2.09-.39s1.8.13,2.81.37c.81.2,1.6.46,2.35.76.59.23,1.17.5,1.76.81,2.96,1.56,4.59,3.52,4.05,4.86-.32.81-1.37,1.26-2.95,1.26Z"/>
              <path class="cls-26" d="M5.25,13.96c.81,0,1.75.12,2.75.37.74.19,1.52.43,2.31.75.62.25,1.19.51,1.74.8,2.73,1.44,4.42,3.31,3.94,4.55-.29.74-1.31,1.1-2.72,1.1s-3.21-.37-5.07-1.11c-.7-.28-1.36-.59-1.97-.91-2.6-1.43-4.18-3.23-3.7-4.43.13-.32.38-.57.75-.74.49-.25,1.17-.37,1.98-.37M5.25,13.45h0c-.91,0-1.65.14-2.21.42-.48.23-.82.57-.99,1.01-.57,1.44.97,3.43,3.93,5.06.69.37,1.37.68,2.03.94,1.86.74,3.72,1.14,5.26,1.14,1.69,0,2.83-.51,3.19-1.42.59-1.49-1.04-3.53-4.17-5.18-.6-.31-1.19-.58-1.79-.82-.76-.3-1.56-.56-2.38-.77-1.03-.25-2.02-.38-2.87-.38h0Z"/>
            </g>
            <path class="cls-6" d="M15.98,20.41c-.58,1.47-4.07,1.47-7.79,0-.7-.28-1.36-.59-1.97-.91,1.62-.23,2.92-.68,2.74-1.47-.27-1.21-3.33-2.71-5.7-3.7.98-.49,2.72-.49,4.73,0,.74.19,1.52.43,2.31.75.62.25,1.19.51,1.74.8,2.73,1.44,4.42,3.31,3.94,4.55Z"/>
          </g>
          <g class="cls-28">
            <g>
              <g>
                <path class="cls-19" d="M9.89,19.56c-.42,0-.82-.08-1.21-.23-.82-.32-1.46-.95-1.8-1.75s-.36-1.7-.04-2.51c.25-.64.69-1.17,1.26-1.54.54-.35,1.15-.53,1.79-.53.41,0,.82.08,1.21.23,1.57.62,2.41,2.31,1.95,3.93-.03.11-.07.22-.11.33-.5,1.26-1.7,2.07-3.05,2.07Z"/>
                <path class="cls-26" d="M9.89,13.25c.37,0,.75.07,1.12.21,1.46.58,2.21,2.15,1.8,3.63-.03.1-.06.2-.1.31-.47,1.19-1.61,1.91-2.82,1.91-.37,0-.75-.07-1.12-.21-1.56-.62-2.32-2.38-1.7-3.93.24-.61.66-1.09,1.17-1.42.49-.32,1.06-.49,1.65-.49M9.89,12.74h0c-.68,0-1.35.2-1.93.57-.62.4-1.09.97-1.36,1.66-.72,1.81.17,3.87,1.98,4.59.42.17.86.25,1.3.25,1.46,0,2.75-.88,3.29-2.23.05-.12.09-.24.12-.37.49-1.73-.42-3.56-2.1-4.23-.42-.17-.86-.25-1.3-.25h0Z"/>
              </g>
              <path class="cls-7" d="M12.71,17.4c-.62,1.55-2.38,2.31-3.93,1.7-1.56-.62-2.32-2.38-1.7-3.93.24-.61.66-1.09,1.17-1.42.17.94.68,2.33,2.26,3.1.75.36,1.55.39,2.31.26-.03.1-.06.2-.1.31Z"/>
              <g>
                <path class="cls-27" d="M10.31,17.24c-.13.32-.54.46-.92.31-.38-.15-.59-.54-.46-.86.13-.32.54-.46.92-.31.38.15.59.54.46.86Z"/>
                <rect class="cls-27" x="8.92" y="17.15" width=".46" height="2.1" rx=".21" ry=".21" transform="translate(7.35 -2.09) rotate(21.63)"/>
              </g>
              <path class="cls-10" d="M12.81,17.06c.41-1.47-.34-3.05-1.8-3.63-.95-.38-1.97-.24-2.77.28-.51.33-.92.81-1.17,1.42-.62,1.55.14,3.31,1.7,3.93,1.56.62,3.32-.14,3.93-1.7.04-.1.07-.2.1-.31ZM8.97,18.59c-1.29-.51-1.93-1.98-1.41-3.27.2-.51.55-.91.97-1.18.66-.43,1.51-.54,2.3-.23,1.21.48,1.84,1.79,1.5,3.02-.02.09-.05.17-.08.25-.51,1.29-1.98,1.92-3.27,1.41Z"/>
              <g class="cls-11">
                <path class="cls-22" d="M11.12,14.3c.29.14.44.43.33.64s-.42.27-.71.12c-.29-.14-.44-.43-.33-.64.1-.21.42-.27.71-.12Z"/>
                <path class="cls-23" d="M10.81,15.28c.18.09.29.25.24.35s-.24.11-.42.02c-.18-.09-.29-.25-.24-.35.05-.1.24-.11.42-.02Z"/>
              </g>
              <g class="cls-11">
                <path class="cls-24" d="M7.52,16.48c-.07-.26.03-.5.21-.56.19-.05.4.12.46.37.07.26-.03.5-.21.56-.19.05-.4-.12-.46-.37Z"/>
                <path class="cls-25" d="M8.3,16.13c-.04-.16,0-.32.08-.34.09-.02.2.09.24.25.04.16,0,.32-.08.34-.09.02-.2-.09-.24-.25Z"/>
              </g>
              <g class="cls-11">
                <path class="cls-20" d="M11.75,17.57c-.05.18-.2.29-.33.25-.13-.04-.19-.21-.14-.39.05-.18.2-.29.33-.25.13.04.19.21.14.39Z"/>
                <path class="cls-21" d="M11.17,17.5c-.03.11-.11.19-.17.17s-.08-.12-.05-.24.11-.19.17-.17c.06.02.08.12.05.24Z"/>
              </g>
            </g>
          </g>
          <path class="cls-9" d="M18.58,7.12l-13.8,3.04c.23-.33.46-.66.69-.99.2-.28.4-.56.6-.84l11.99-2.69c.25.45.43.94.52,1.48Z"/>
        </g>
      </g>
    </g>
  </g>
</svg>