<?xml version="1.0" encoding="UTF-8"?>
<svg xmlns="http://www.w3.org/2000/svg" xmlns:xlink="http://www.w3.org/1999/xlink" viewBox="0 0 18.3 30.43">
  <defs>
    <style>
      .cls-1 {
        fill: #fff;
        mix-blend-mode: overlay;
      }

      .cls-2 {
        fill: url(#radial-gradient);
      }

      .cls-3 {
        isolation: isolate;
      }

      .cls-4 {
        fill: #d4d8db;
        mix-blend-mode: multiply;
      }

      .cls-5 {
        fill: #9ea1a3;
      }
    </style>
    <radialGradient id="radial-gradient" cx=".89" cy="10.24" fx=".89" fy="10.24" r="25.94" gradientUnits="userSpaceOnUse">
      <stop offset="0" stop-color="#fff"/>
      <stop offset="1" stop-color="#d4d8db"/>
    </radialGradient>
  </defs>
  <g class="cls-3">
    <g id="Layer_2" data-name="Layer 2">
      <g id="Layer_1-2" data-name="Layer 1">
        <g>
          <g>
            <path class="cls-2" d="M10.28,29.95c-.87,0-1.79-.27-2.73-.81-.42-.24-.86-.54-1.28-.88-2.27-1.8-3.9-4.55-4.85-8.18C-.56,12.51,1.04,3.05,2.62,1c.27-.34.56-.52.87-.52.02,0,.08,0,.1,0,1.19.15,1.66,1.13,2.36,2.61.44.93.99,2.09,1.89,3.52.15.25.33.52.5.78,2.79,4.1,7.57,7.45,8.97,8.38l.29.19c.15.1.24.28.22.46-.06.55-1.5,13.53-7.54,13.53Z"/>
            <path class="cls-5" d="M3.49.97s.03,0,.04,0c1.53.19,1.55,2.19,3.9,5.91.15.25.33.52.51.79,2.89,4.25,7.85,7.68,9.1,8.51.19.12.3.19.3.19,0,0-1.38,13.1-7.06,13.1-.75,0-1.58-.23-2.49-.75-.39-.22-.8-.5-1.22-.84-2.39-1.9-3.86-4.77-4.69-7.93C-.32,11.51,2.01.97,3.49.97M3.49,0h0c-.32,0-.8.12-1.25.71C.56,2.88-1.1,12.37.94,20.19c.98,3.73,2.67,6.57,5.02,8.44.45.36.9.67,1.35.93,1.01.58,2.01.87,2.96.87,2.82,0,5.04-2.43,6.58-7.22,1.07-3.33,1.43-6.61,1.44-6.74.04-.36-.13-.72-.44-.92l-.3-.19c-1.36-.9-6.08-4.21-8.82-8.24-.17-.25-.34-.51-.48-.74-.9-1.42-1.44-2.57-1.87-3.48C5.64,1.33,5.1.19,3.65,0c-.04,0-.12,0-.16,0h0Z"/>
          </g>
          <path class="cls-4" d="M17.34,16.37s-1.77,16.8-9.55,12.35c-.39-.22-.8-.5-1.22-.84-2.39-1.9-3.86-4.77-4.69-7.93,1.78.35,3.55.23,4.86-.95,2.13-1.92,1.38-8.28.69-12.12.15.25.33.52.51.79,2.89,4.25,7.85,7.68,9.1,8.51.19.12.3.19.3.19Z"/>
          <path class="cls-1" d="M17.04,16.18l-1.68.28s-5.14-3.43-7.72-7.2c-2.59-3.76-3.32-6.44-3.71-6.83s-5.1,13.76,2.62,24.35c.55.75.96,1.39,1.24,1.94-.39-.22-.8-.5-1.22-.84C-2.25,20.85,1.51.71,3.53.97c1.64.2,1.54,2.47,4.41,6.7,2.89,4.25,7.85,7.68,9.1,8.51Z"/>
        </g>
      </g>
    </g>
  </g>
</svg>