<?xml version="1.0" encoding="UTF-8"?>
<svg xmlns="http://www.w3.org/2000/svg" xmlns:xlink="http://www.w3.org/1999/xlink" viewBox="0 0 27.47 35.3">
  <defs>
    <style>
      .cls-1 {
        fill: url(#radial-gradient-4);
      }

      .cls-2 {
        fill: url(#radial-gradient-3);
      }

      .cls-3 {
        fill: url(#radial-gradient-2);
      }

      .cls-4 {
        fill: #e3e3e3;
      }

      .cls-5 {
        fill: url(#linear-gradient-2);
      }

      .cls-6 {
        fill: url(#radial-gradient);
      }

      .cls-7 {
        fill: url(#linear-gradient);
      }

      .cls-8 {
        fill: #ffd1d1;
        mix-blend-mode: multiply;
      }

      .cls-9 {
        isolation: isolate;
      }

      .cls-10 {
        fill: #fff;
      }

      .cls-11 {
        mix-blend-mode: overlay;
      }
    </style>
    <radialGradient id="radial-gradient" cx="6.09" cy="15.36" fx="6.09" fy="15.36" r="18.77" gradientUnits="userSpaceOnUse">
      <stop offset=".14" stop-color="#fed0d4"/>
      <stop offset="1" stop-color="#fe9ba4"/>
    </radialGradient>
    <linearGradient id="linear-gradient" x1=".53" y1="27.12" x2="21.66" y2="20.43" gradientUnits="userSpaceOnUse">
      <stop offset="0" stop-color="#e35f6b"/>
      <stop offset=".54" stop-color="#fe989f"/>
      <stop offset="1" stop-color="#e35f6b"/>
    </linearGradient>
    <radialGradient id="radial-gradient-2" cx="-164.6" cy="22.69" fx="-164.6" fy="22.69" r="4.3" gradientTransform="translate(162.08 -48.59) rotate(-17.57)" gradientUnits="userSpaceOnUse">
      <stop offset="0" stop-color="#fff299"/>
      <stop offset="1" stop-color="#ffcc78"/>
    </radialGradient>
    <radialGradient id="radial-gradient-3" cx="197.16" cy="50.37" fx="197.16" fy="50.37" r="13.26" gradientTransform="translate(-120.2 -147.37) rotate(32.23)" xlink:href="#radial-gradient"/>
    <linearGradient id="linear-gradient-2" x1="11.96" y1="5.32" x2="27.11" y2="9.28" xlink:href="#linear-gradient"/>
    <radialGradient id="radial-gradient-4" cx="5.99" cy="111.15" fx="5.99" fy="111.15" r="3.04" gradientTransform="translate(42.82 -102.04) rotate(14.66)" xlink:href="#radial-gradient-2"/>
  </defs>
  <g class="cls-9">
    <g id="Layer_2" data-name="Layer 2">
      <g id="Layer_1-2" data-name="Layer 1">
        <g>
          <g>
            <g>
              <path class="cls-6" d="M19.91,22.51c-.58.81-1.28,1.29-1.28,1.29,0,0,.38.21.86.6,1.28,1.04,3.26,3.32.57,6.06-2.36,2.4-4.55,1.34-5.81.26-.72-.61-1.14-1.22-1.14-1.22,0,0,0,.73-.25,1.64-.43,1.55-1.58,3.6-4.65,3.39-3.16-.21-3.27-2.63-2.96-4.3.17-.91.47-1.61.47-1.61,0,0-.85.07-1.84-.17-1.46-.35-3.27-1.37-3.1-4.28.17-2.99,2.03-3.53,3.44-3.51.89.01,1.6.25,1.6.25,0,0-.46-.81-.62-1.88-.22-1.46.1-3.4,2.81-4.47,2.8-1.1,4.28.4,5,1.79.51.95.67,1.87.67,1.87,0,0,.49-.61,1.27-1.13,1.16-.77,2.97-1.35,4.68.71,1.63,1.95,1.07,3.65.28,4.74Z"/>
              <path class="cls-7" d="M9.82,14.16c1.66,0,2.64,1.12,3.2,2.17.51.95.67,1.87.67,1.87,0,0,.49-.61,1.27-1.13.57-.38,1.29-.71,2.07-.71.83,0,1.73.36,2.6,1.42,1.63,1.95,1.07,3.65.28,4.74-.58.81-1.28,1.29-1.28,1.29,0,0,.38.21.86.6,1.28,1.04,3.26,3.32.57,6.06-1.05,1.07-2.07,1.45-2.98,1.45-1.14,0-2.13-.6-2.83-1.2-.72-.61-1.14-1.22-1.14-1.22,0,0,0,.73-.25,1.64-.41,1.47-1.47,3.41-4.23,3.41-.14,0-.28,0-.42-.01-3.16-.21-3.27-2.63-2.96-4.3.17-.91.47-1.61.47-1.61,0,0-.11,0-.3,0-.33,0-.91-.03-1.54-.18-1.46-.35-3.27-1.37-3.1-4.28.17-2.93,1.96-3.51,3.37-3.51.03,0,.05,0,.08,0,.89.01,1.6.25,1.6.25,0,0-.46-.81-.62-1.88-.22-1.46.1-3.4,2.81-4.47.68-.27,1.28-.38,1.81-.38M9.82,13.4c-.65,0-1.36.15-2.09.43-2.48.98-3.65,2.86-3.29,5.29.04.28.1.54.17.78-.12,0-.25-.02-.39-.02h-.09c-2.47,0-3.97,1.54-4.12,4.23-.21,3.59,2.22,4.72,3.68,5.07.35.08.68.14.97.17-.06.22-.12.47-.17.74-.3,1.61-.08,2.9.63,3.81.65.83,1.67,1.3,3.03,1.39.16.01.32.02.47.02,2.48,0,4.25-1.41,4.96-3.96.01-.05.03-.1.04-.15.04.04.08.07.13.11,1.05.9,2.2,1.38,3.32,1.38,1.24,0,2.43-.57,3.53-1.68,1.1-1.12,1.62-2.3,1.55-3.51-.09-1.64-1.24-2.9-2.18-3.67-.03-.03-.07-.06-.1-.08.21-.22.45-.48.66-.78,1.32-1.83,1.2-3.84-.32-5.67-.93-1.12-2-1.69-3.19-1.69-.82,0-1.66.28-2.49.83-.17.12-.33.24-.48.35-.1-.26-.22-.53-.37-.81-.88-1.68-2.22-2.58-3.87-2.58h0Z"/>
            </g>
            <path class="cls-8" d="M18.63,23.8s.38.21.86.6c-.9.12-2.3.52-3.79,1.76-1.73,1.45-1.66,3.46-1.45,4.55-.72-.61-1.14-1.22-1.14-1.22,0,0,0,.73-.25,1.64-.54-.75-1.41-1.68-2.58-2.03-1.51-.45-3.88.55-5.04,1.12.17-.91.47-1.61.47-1.61,0,0-.85.07-1.84-.17,0,0,2.45-1.56,2.45-3.73,0-1.36-1.21-3.02-2.11-4.06.89.01,1.6.25,1.6.25,0,0-.46-.81-.62-1.88,1.05.47,2.93,1.1,4.54.45,1.7-.67,2.79-2.27,3.28-3.13.51.95.67,1.87.67,1.87,0,0,.49-.61,1.27-1.13.1.92.42,2.48,1.38,3.76.95,1.25,2.55,1.6,3.58,1.69-.58.81-1.28,1.29-1.28,1.29Z"/>
            <g class="cls-11">
              <path class="cls-4" d="M9.82,14.73c1.14,0,2.05.63,2.7,1.87.46.86.61,1.69.61,1.7.04.22.2.39.42.45.05.01.09.02.14.02.17,0,.33-.07.44-.21,0,0,.46-.56,1.14-1.02.61-.41,1.2-.61,1.76-.61.77,0,1.5.41,2.17,1.21,1.13,1.35,1.21,2.71.25,4.05-.51.71-1.13,1.15-1.14,1.15-.16.11-.25.3-.25.49,0,.2.12.37.29.47,0,0,.35.2.78.55.74.6,1.63,1.56,1.7,2.71.05.82-.35,1.67-1.17,2.51-.84.85-1.7,1.28-2.58,1.28-1.01,0-1.9-.58-2.46-1.06-.65-.55-1.04-1.11-1.05-1.11-.11-.15-.28-.24-.46-.24-.06,0-.11,0-.17.03-.24.07-.4.29-.4.54,0,0,0,.68-.22,1.49-.56,1.99-1.8,2.99-3.69,2.99-.12,0-.25,0-.38-.01-.97-.06-1.66-.36-2.07-.88-.59-.75-.53-1.91-.37-2.75.16-.84.43-1.48.43-1.49.08-.18.05-.39-.06-.55-.11-.15-.28-.24-.46-.24-.01,0-.03,0-.04,0-.01,0-.1,0-.25,0-.27,0-.81-.02-1.41-.17-1.89-.45-2.78-1.69-2.67-3.7.11-2,1.03-2.98,2.8-2.98h.07c.78.01,1.43.22,1.43.22.06.02.12.03.18.03.17,0,.33-.07.44-.21.15-.18.17-.43.06-.64,0,0-.41-.74-.55-1.69-.27-1.81.56-3.11,2.46-3.87.58-.23,1.11-.34,1.6-.34M9.82,14.16c-.53,0-1.13.11-1.81.38-2.71,1.07-3.03,3.01-2.81,4.47.16,1.07.62,1.88.62,1.88,0,0-.71-.24-1.6-.25-.03,0-.05,0-.08,0-1.41,0-3.2.58-3.37,3.51-.17,2.91,1.64,3.93,3.1,4.28.63.16,1.21.18,1.54.18.19,0,.3,0,.3,0,0,0-.3.69-.47,1.61-.31,1.67-.2,4.09,2.96,4.3.14,0,.28.01.42.01,2.76,0,3.82-1.93,4.23-3.41.25-.91.25-1.64.25-1.64,0,0,.43.61,1.14,1.22.7.6,1.69,1.2,2.83,1.2.92,0,1.93-.38,2.98-1.45,2.69-2.74.71-5.02-.57-6.06-.48-.39-.86-.6-.86-.6,0,0,.7-.48,1.28-1.29.79-1.09,1.35-2.78-.28-4.74-.88-1.05-1.78-1.42-2.6-1.42-.79,0-1.51.33-2.07.71-.77.52-1.27,1.13-1.27,1.13,0,0-.16-.91-.67-1.87-.55-1.06-1.53-2.17-3.2-2.17h0Z"/>
            </g>
            <circle class="cls-3" cx="11.1" cy="23.78" r="3.66"/>
            <circle class="cls-10" cx="9.74" cy="22.91" r="1.36"/>
          </g>
          <g>
            <g>
              <path class="cls-2" d="M25.28,9.86c-.65.27-1.25.29-1.25.29,0,0,.15.27.29.68.37,1.1.7,3.21-1.94,3.83-2.32.55-3.22-.91-3.57-2.04-.2-.63-.22-1.16-.22-1.16,0,0-.28.44-.76.89-.84.76-2.3,1.56-4.06.27-1.81-1.32-.96-2.8-.15-3.69.45-.48.89-.78.89-.78,0,0-.53-.28-1.03-.8-.74-.76-1.44-2.05-.24-3.73,1.23-1.72,2.54-1.35,3.38-.8.53.34.86.75.86.75,0,0,.03-.66.34-1.36.42-.95,1.34-1.99,3.37-1.61,2.09.4,2.41,1.85,2.31,2.96-.06.76-.3,1.37-.3,1.37,0,0,.52-.18,1.18-.2.99-.02,2.28.31,2.53,2.19.24,1.78-.74,2.58-1.62,2.94Z"/>
              <path class="cls-5" d="M20.36.54c.25,0,.52.03.81.08,2.09.4,2.41,1.85,2.32,2.96-.06.76-.3,1.37-.3,1.37,0,0,.52-.18,1.18-.2.03,0,.06,0,.1,0,.97,0,2.19.37,2.43,2.19.24,1.78-.74,2.58-1.62,2.94-.65.27-1.25.29-1.25.29,0,0,.15.27.29.68.37,1.1.7,3.21-1.94,3.83-.35.08-.66.12-.95.12-1.63,0-2.33-1.2-2.62-2.16-.2-.63-.22-1.16-.22-1.16,0,0-.28.44-.76.89-.52.47-1.27.95-2.19.95-.57,0-1.2-.19-1.87-.68-1.81-1.32-.96-2.8-.15-3.69.45-.48.89-.78.89-.78,0,0-.53-.28-1.03-.8-.74-.76-1.44-2.05-.24-3.73.67-.94,1.37-1.26,2.01-1.26.52,0,.99.21,1.37.46.53.34.86.75.86.75,0,0,.03-.66.34-1.36.36-.82,1.09-1.69,2.55-1.69M20.36,0c-1.41,0-2.46.7-3.05,2.01-.08.18-.14.36-.19.53-.07-.05-.15-.11-.22-.16-.55-.36-1.11-.54-1.67-.54-.92,0-1.74.5-2.45,1.48-1.48,2.07-.45,3.65.29,4.41.17.18.35.34.52.46-.12.11-.25.24-.38.38-.78.85-1.14,1.7-1.06,2.52.07.74.51,1.4,1.29,1.97.71.52,1.45.78,2.19.78.88,0,1.76-.38,2.55-1.09.03-.03.05-.05.08-.08.01.04.02.08.03.11.5,1.63,1.62,2.53,3.13,2.53.34,0,.7-.04,1.07-.13,1.08-.25,1.83-.76,2.25-1.51.56-1.01.35-2.2.08-3.01-.01-.03-.02-.06-.03-.09.21-.05.45-.12.69-.22,1.48-.6,2.17-1.84,1.95-3.5-.22-1.69-1.3-2.65-2.96-2.65h-.11c-.15,0-.29.02-.42.03.04-.19.07-.4.08-.62.15-1.88-.85-3.16-2.75-3.52-.32-.06-.62-.09-.91-.09h0Z"/>
            </g>
            <path class="cls-8" d="M24.03,10.15s.15.27.29.68c-.58-.27-1.57-.56-2.93-.38-1.58.21-2.3,1.45-2.58,2.17-.2-.63-.22-1.16-.22-1.16,0,0-.28.44-.76.89-.04-.65-.21-1.54-.78-2.18-.74-.84-2.53-1.13-3.43-1.23.45-.48.89-.78.89-.78,0,0-.53-.28-1.03-.8,0,0,2.05,0,2.87-1.31.51-.82.41-2.26.27-3.22.53.34.86.75.86.75,0,0,.03-.66.34-1.36.45.68,1.34,1.76,2.54,1.98,1.27.24,2.52-.3,3.14-.64-.06.76-.3,1.37-.3,1.37,0,0,.52-.18,1.18-.2-.29.58-.68,1.64-.59,2.77.09,1.11.92,1.92,1.5,2.36-.65.27-1.25.29-1.25.29Z"/>
            <g class="cls-11">
              <path class="cls-4" d="M20.36.94c.23,0,.48.02.74.07,1.44.27,2.11,1.12,1.99,2.53-.05.68-.27,1.24-.27,1.25-.06.14-.03.31.08.42.08.08.18.13.29.13.04,0,.09,0,.13-.02,0,0,.48-.16,1.06-.18h.09c1.21,0,1.87.6,2.04,1.84.16,1.23-.3,2.08-1.37,2.51-.57.23-1.11.26-1.11.26-.14,0-.26.08-.33.2s-.07.27,0,.39c0,0,.13.25.26.62.21.64.39,1.54,0,2.26-.28.51-.84.87-1.64,1.06-.3.07-.59.11-.86.11-1.1,0-1.86-.63-2.24-1.88-.18-.57-.2-1.05-.2-1.06,0-.17-.13-.32-.3-.37-.03,0-.07-.01-.1-.01-.13,0-.26.07-.34.19,0,0-.26.4-.69.8-.62.56-1.27.85-1.92.85-.54,0-1.09-.2-1.64-.6-.55-.4-.86-.84-.9-1.31-.07-.67.41-1.34.81-1.79.41-.44.82-.72.82-.73.12-.08.18-.21.17-.35,0-.14-.09-.27-.21-.33,0,0-.49-.26-.93-.72-.96-.98-1.02-2.06-.2-3.22.52-.72,1.08-1.09,1.68-1.09.37,0,.75.13,1.15.39.46.3.77.67.77.67.08.09.19.14.31.14.04,0,.08,0,.13-.02.16-.05.27-.19.27-.36,0,0,.04-.6.31-1.22.43-.97,1.16-1.46,2.19-1.46M20.36.54c-1.47,0-2.19.88-2.55,1.69-.31.7-.34,1.36-.34,1.36,0,0-.34-.41-.86-.75-.38-.25-.85-.46-1.37-.46-.63,0-1.33.31-2.01,1.26-1.2,1.68-.5,2.97.24,3.73.5.52,1.03.8,1.03.8,0,0-.44.3-.89.78-.81.89-1.66,2.37.15,3.69.67.49,1.3.68,1.87.68.91,0,1.67-.48,2.19-.95.49-.45.76-.89.76-.89,0,0,.02.53.22,1.16.3.96,1,2.16,2.62,2.16.29,0,.6-.04.95-.12,2.64-.62,2.31-2.73,1.94-3.83-.14-.41-.29-.68-.29-.68,0,0,.6-.02,1.25-.29.88-.36,1.86-1.16,1.62-2.94-.24-1.81-1.46-2.19-2.43-2.19-.03,0-.06,0-.1,0-.66.02-1.18.2-1.18.2,0,0,.25-.61.3-1.37.09-1.11-.23-2.56-2.32-2.96-.29-.06-.56-.08-.81-.08h0Z"/>
            </g>
            <circle class="cls-1" cx="19.54" cy="7.3" r="2.59"/>
            <circle class="cls-10" cx="19.06" cy="6.27" r=".96"/>
          </g>
        </g>
      </g>
    </g>
  </g>
</svg>