<?xml version="1.0" encoding="UTF-8"?>
<svg xmlns="http://www.w3.org/2000/svg" xmlns:xlink="http://www.w3.org/1999/xlink" viewBox="0 0 39.4 32.7">
  <defs>
    <style>
      .cls-1 {
        fill: url(#linear-gradient-8);
      }

      .cls-2 {
        fill: url(#linear-gradient-9);
      }

      .cls-3 {
        fill: url(#linear-gradient-3);
      }

      .cls-4 {
        fill: url(#linear-gradient-2);
      }

      .cls-5 {
        fill: url(#linear-gradient);
      }

      .cls-6 {
        isolation: isolate;
      }

      .cls-7 {
        fill: url(#linear-gradient-4);
      }

      .cls-7, .cls-8, .cls-9, .cls-10, .cls-11, .cls-12, .cls-13, .cls-14, .cls-15, .cls-16, .cls-17, .cls-18, .cls-19, .cls-20, .cls-21, .cls-22, .cls-23, .cls-24, .cls-25 {
        mix-blend-mode: overlay;
      }

      .cls-8 {
        fill: url(#linear-gradient-6);
      }

      .cls-9 {
        fill: url(#linear-gradient-5);
      }

      .cls-10 {
        fill: url(#linear-gradient-7);
      }

      .cls-11 {
        fill: url(#linear-gradient-12);
      }

      .cls-12 {
        fill: url(#linear-gradient-13);
      }

      .cls-13 {
        fill: url(#linear-gradient-20);
      }

      .cls-14 {
        fill: url(#linear-gradient-19);
      }

      .cls-15 {
        fill: url(#linear-gradient-21);
      }

      .cls-16 {
        fill: url(#linear-gradient-14);
      }

      .cls-17 {
        fill: url(#linear-gradient-30);
      }

      .cls-18 {
        fill: url(#linear-gradient-15);
      }

      .cls-19 {
        fill: url(#linear-gradient-25);
      }

      .cls-20 {
        fill: url(#linear-gradient-26);
      }

      .cls-21 {
        fill: url(#linear-gradient-24);
      }

      .cls-22 {
        fill: url(#linear-gradient-27);
      }

      .cls-23 {
        fill: url(#linear-gradient-18);
      }

      .cls-26 {
        fill: url(#linear-gradient-10);
      }

      .cls-27 {
        fill: url(#linear-gradient-11);
      }

      .cls-28 {
        fill: url(#linear-gradient-22);
      }

      .cls-29 {
        fill: url(#linear-gradient-23);
      }

      .cls-30 {
        fill: url(#linear-gradient-28);
      }

      .cls-31 {
        fill: url(#linear-gradient-16);
      }

      .cls-32 {
        fill: url(#linear-gradient-17);
      }

      .cls-33 {
        fill: url(#linear-gradient-29);
      }

      .cls-25 {
        opacity: .46;
      }

      .cls-34 {
        fill: #db4f90;
      }
    </style>
    <linearGradient id="linear-gradient" x1="492.68" y1="15.06" x2="496.93" y2="46.92" gradientTransform="translate(511.62 54.21) rotate(-172.08) scale(1 -1)" gradientUnits="userSpaceOnUse">
      <stop offset="0" stop-color="#ffd9eb"/>
      <stop offset=".14" stop-color="#ffcbde"/>
      <stop offset=".47" stop-color="#ffb2c7"/>
      <stop offset=".76" stop-color="#ffa3b9"/>
      <stop offset="1" stop-color="#ff9eb5"/>
    </linearGradient>
    <linearGradient id="linear-gradient-2" x1="546.67" y1="-27.26" x2="550.92" y2="4.61" gradientTransform="translate(562.29 13.2) rotate(178.46) scale(1 -1)" xlink:href="#linear-gradient"/>
    <linearGradient id="linear-gradient-3" x1="495.37" y1="14.96" x2="499.58" y2="46.47" xlink:href="#linear-gradient"/>
    <linearGradient id="linear-gradient-4" x1="496.17" y1="32.17" x2="499.62" y2="44.18" gradientTransform="translate(511.62 54.21) rotate(-172.08) scale(1 -1)" gradientUnits="userSpaceOnUse">
      <stop offset="0" stop-color="#fff" stop-opacity="0"/>
      <stop offset="1" stop-color="#ffebc4"/>
    </linearGradient>
    <linearGradient id="linear-gradient-5" x1="502.28" y1="47.69" x2="498.08" y2="37.21" xlink:href="#linear-gradient-4"/>
    <linearGradient id="linear-gradient-6" x1="597.25" y1="-8.03" x2="596.39" y2="-10.17" gradientTransform="translate(35.73 533.56) rotate(-93.49) scale(.86 -1)" xlink:href="#linear-gradient-4"/>
    <linearGradient id="linear-gradient-7" x1="597.55" y1="-7.78" x2="597.15" y2="-8.79" gradientTransform="translate(40.85 535.65) rotate(-93.95) scale(.86 -1)" xlink:href="#linear-gradient-4"/>
    <linearGradient id="linear-gradient-8" x1="563.84" y1="24.96" x2="568.09" y2="56.82" gradientTransform="translate(-544.72 54.21) rotate(-7.92)" xlink:href="#linear-gradient"/>
    <linearGradient id="linear-gradient-9" x1="563.84" y1="24.96" x2="568.09" y2="56.82" gradientTransform="translate(-544.72 54.21) rotate(-7.92)" xlink:href="#linear-gradient"/>
    <linearGradient id="linear-gradient-10" x1="618.49" y1="-29.19" x2="622.74" y2="2.68" gradientTransform="translate(-595.39 13.2) rotate(1.54)" xlink:href="#linear-gradient"/>
    <linearGradient id="linear-gradient-11" x1="566.54" y1="24.86" x2="570.74" y2="56.37" gradientTransform="translate(-544.72 54.21) rotate(-7.92)" xlink:href="#linear-gradient"/>
    <linearGradient id="linear-gradient-12" x1="567.33" y1="42.07" x2="570.78" y2="54.08" gradientTransform="translate(-544.72 54.21) rotate(-7.92)" xlink:href="#linear-gradient-4"/>
    <linearGradient id="linear-gradient-13" x1="573.45" y1="57.59" x2="569.25" y2="47.11" gradientTransform="translate(-544.72 54.21) rotate(-7.92)" xlink:href="#linear-gradient-4"/>
    <linearGradient id="linear-gradient-14" x1="680.69" y1="-10.7" x2="679.84" y2="-12.83" gradientTransform="translate(-560.86 -1.45) rotate(3.49) scale(.86 1)" xlink:href="#linear-gradient-4"/>
    <linearGradient id="linear-gradient-15" x1="681" y1="-10.45" x2="680.6" y2="-11.46" gradientTransform="translate(-560.61 -6.18) rotate(3.95) scale(.86 1)" xlink:href="#linear-gradient-4"/>
    <linearGradient id="linear-gradient-16" x1="156.59" y1="205.86" x2="161.99" y2="246.31" gradientTransform="translate(-66.29 -237.51) rotate(15.24)" xlink:href="#linear-gradient"/>
    <linearGradient id="linear-gradient-17" x1="156.59" y1="205.86" x2="162.01" y2="246.48" gradientTransform="translate(-66.29 -237.51) rotate(15.24)" xlink:href="#linear-gradient"/>
    <linearGradient id="linear-gradient-18" x1="160.63" y1="220.54" x2="159.3" y2="212.17" gradientTransform="translate(-66.29 -237.51) rotate(15.24)" xlink:href="#linear-gradient-4"/>
    <linearGradient id="linear-gradient-19" x1="166.48" y1="214.64" x2="166.23" y2="213.05" gradientTransform="translate(250.91 -154.67) rotate(90)" xlink:href="#linear-gradient-4"/>
    <linearGradient id="linear-gradient-20" x1="165.11" y1="215.17" x2="165" y2="214.48" gradientTransform="translate(250.9 -152.28) rotate(90)" xlink:href="#linear-gradient-4"/>
    <linearGradient id="linear-gradient-21" x1="153.03" y1="212.03" x2="168.26" y2="208.73" gradientTransform="translate(-66.29 -237.51) rotate(15.24)" xlink:href="#linear-gradient-4"/>
    <linearGradient id="linear-gradient-22" x1="1144.73" y1="-66.18" x2="1150.13" y2="-25.73" gradientTransform="translate(1129.35 -240.48) rotate(164.47) scale(1 -1)" xlink:href="#linear-gradient"/>
    <linearGradient id="linear-gradient-23" x1="1144.73" y1="-66.17" x2="1150.15" y2="-25.56" gradientTransform="translate(1129.35 -240.48) rotate(164.47) scale(1 -1)" xlink:href="#linear-gradient"/>
    <linearGradient id="linear-gradient-24" x1="1148.77" y1="-51.5" x2="1147.44" y2="-59.87" gradientTransform="translate(1129.35 -240.48) rotate(164.47) scale(1 -1)" xlink:href="#linear-gradient-4"/>
    <linearGradient id="linear-gradient-25" x1="1154.62" y1="-57.4" x2="1154.37" y2="-58.99" gradientTransform="translate(1155.63 70.72) rotate(-180) scale(1 -1)" xlink:href="#linear-gradient-4"/>
    <linearGradient id="linear-gradient-26" x1="1153.25" y1="-56.87" x2="1153.14" y2="-57.56" gradientTransform="translate(1156.01 70.34) rotate(-180) scale(1 -1)" xlink:href="#linear-gradient-4"/>
    <linearGradient id="linear-gradient-27" x1="1141.17" y1="-60.01" x2="1156.4" y2="-63.31" gradientTransform="translate(1129.35 -240.48) rotate(164.47) scale(1 -1)" xlink:href="#linear-gradient-4"/>
    <linearGradient id="linear-gradient-28" x1="102.28" y1="74.53" x2="107.68" y2="114.98" gradientTransform="translate(-84.05 -73.39) rotate(-.14)" xlink:href="#linear-gradient"/>
    <linearGradient id="linear-gradient-29" x1="102.05" y1="74.53" x2="107.44" y2="114.96" gradientTransform="translate(-84.05 -73.39) rotate(-.14)" xlink:href="#linear-gradient"/>
    <linearGradient id="linear-gradient-30" x1="102.91" y1="86.41" x2="102.82" y2="82.58" gradientTransform="translate(-84.79 -72.41) rotate(-1.03)" xlink:href="#linear-gradient-4"/>
  </defs>
  <g class="cls-6">
    <g id="Layer_2" data-name="Layer 2">
      <g id="Layer_1-2" data-name="Layer 1">
        <g>
          <g>
            <g>
              <path class="cls-5" d="M10.18,32.3s1.99.34,3.86-.13c.04,0,.07-.02.11-.03.17-.05.32-.09.46-.15.98-.33,1.87-.94,2.33-1.98,1.4-3.19-4.86-6.91-4.86-6.91,0,0,1.79,3.22.83,5.85-.47,1.29-1.13,2.12-1.69,2.62-.58.54-1.05.73-1.05.73Z"/>
              <path class="cls-34" d="M10.23,32.29c1.32-.14,2.81-.12,4.08-.61,5.66-2.34.9-6.46-2.43-8.21,0,0,.59-.58.59-.58.88,1.64,1.48,3.47,1.11,5.35-.44,1.73-1.61,3.55-3.35,4.05h0ZM10.13,32.3c2.96-2.09,3.13-6,1.58-8.99-.24-.37.24-.83.59-.58,2.01,1.39,3.87,3.16,4.89,5.41.13.39.22.85.2,1.28-.49,3.34-4.62,3.75-7.27,2.88h0Z"/>
            </g>
            <path class="cls-5" d="M10.18,32.3s1.99.34,3.86-.13c.04,0,.07-.02.11-.03.17-.05.32-.09.46-.15.98-.33,1.87-.94,2.33-1.98,1.4-3.19-4.86-6.91-4.86-6.91,0,0,1.79,3.22.83,5.85-.47,1.29-1.13,2.12-1.69,2.62-.58.54-1.05.73-1.05.73Z"/>
            <path class="cls-25" d="M12.92,28.95c-.47,1.29-1.13,2.12-1.69,2.62.62-.31,1.31-.84,2.01-1.69,2.59-3.11,4.44.89,1.38,2.12.98-.33,1.87-.94,2.33-1.98,1.4-3.19-4.86-6.91-4.86-6.91,0,0,1.79,3.22.83,5.85Z"/>
          </g>
          <g>
            <g>
              <path class="cls-4" d="M19.62,8.8s-3.16,3.94-3.23,10.23c-.07,6.3,1,9.88.81,10.13s-6.39-3.46-8.98-8.03c-2.6-4.57,5.89-10.35,11.41-12.33Z"/>
              <path class="cls-34" d="M19.65,8.77c-3.58,5.96-3.2,12.94-2.38,19.53.02.3.12.54.06.88-.02.04,0,.05-.07.1-.03.02-.07.03-.11.04-3.26-1.36-10.26-6.52-9.9-10.45.88-5.11,7.83-8.77,12.39-10.1h0ZM19.58,8.83c-4.12,2.15-10.18,5.32-11.35,10.15-.31,3.26,5.92,8.52,8.68,9.96.08.04.17.07.24.09,0,0,0,0,0,0-.02,0-.04,0-.06.02-.03.05-.02,0-.02.02.02-.14-.04-.48-.08-.72-1.25-6.47-2.12-14.19,2.59-19.52h0Z"/>
            </g>
            <path class="cls-3" d="M8.21,21.13c.73,1.28,1.73,2.49,2.81,3.56,2.78,2.79,6.04,4.66,6.18,4.48.04-.05.03-.22,0-.52-.01-.1-.03-.21-.05-.34-.22-1.44-.8-4.61-.74-9.27.07-6.13,3.06-10.02,3.22-10.22-1.96.7-4.29,1.88-6.36,3.31-3.78,2.61-6.71,6.06-5.04,9.01Z"/>
            <path class="cls-25" d="M8.21,21.13c.73,1.28,1.73,2.49,2.81,3.56.05-.03.07-.04.07-.04,0,0-3.07-3.16-.38-6.97,2.69-3.81,4.14-2.19,4.14-2.19,0,0,1.18-3.27.87,3.16-.21,4.53.77,8.16,1.47,10.01-.17-1.23-.85-4.55-.8-9.61.07-6.13,3.06-10.02,3.22-10.22-5.51,1.98-14,7.75-11.4,12.32Z"/>
            <path class="cls-7" d="M15.29,17.45s-.64,3.1-.16,6.05c.48,2.95,1.36,4.14.95,4.33s-5.14-3.61-5.88-5.82.76-5.08,2.57-6.31c1.81-1.23,1.46.89,1.46.89"/>
            <path class="cls-9" d="M8.21,21.13c.73,1.28,1.73,2.49,2.81,3.56,2.78,2.79,6.04,4.66,6.18,4.48.04-.05.03-.22,0-.52-.01-.1-.03-.21-.05-.34-.77-1.86-1.58-5.17-1.44-9.12.13-3.69-.17-4.42-.25-4.54.5,1-.33,5.09.02,8.11.35,3.05,1.05,5.36.99,5.61-.06.24-.75.01-3.13-2.13-2.39-2.13-5.97-5.9-4.69-8.88.69-1.6,2.81-3.67,4.61-5.23-3.78,2.61-6.71,6.06-5.04,9.01Z"/>
            <ellipse class="cls-8" cx="15.11" cy="20.88" rx="1.37" ry=".49" transform="translate(-6.13 35.49) rotate(-88.63)"/>
            <ellipse class="cls-10" cx="14.43" cy="22.53" rx=".64" ry=".27" transform="translate(-8.55 36.24) rotate(-88.17)"/>
            <path class="cls-34" d="M14.35,17.01c.82-2.96,2.52-6.42,5.14-8,.04.05.03.12-.02.17-2.53,1.93-4.26,4.79-5.13,7.83h0Z"/>
            <path class="cls-34" d="M16.55,10.51c-1.17,1-2.68,1.74-3.43,3.12-.5,1.34,1.97-.89,2.25-1.04.02,0,2.11-1.69,2.13-1.66-1.26,1.25-2.58,2.66-4.29,3.27-.06,0-.14,0-.2-.06-.14-.17,0-.37.04-.54.75-1.36,2.17-2.46,3.51-3.09h0Z"/>
          </g>
          <g>
            <g>
              <path class="cls-1" d="M28.57,32.3s-1.99.34-3.86-.13c-.04,0-.07-.02-.11-.03-.17-.05-.32-.09-.46-.15-.98-.33-1.87-.94-2.33-1.98-1.4-3.19,4.86-6.91,4.86-6.91,0,0-1.79,3.22-.83,5.85.47,1.29,1.13,2.12,1.69,2.62.58.54,1.05.73,1.05.73Z"/>
              <path class="cls-34" d="M28.61,32.3c-2.64.88-6.78.47-7.27-2.88-.02-.72.21-1.42.56-2.04,1.14-1.88,2.71-3.43,4.53-4.66.36-.25.83.21.59.58-1.55,2.99-1.37,6.9,1.58,8.99h0ZM28.52,32.29c-1.74-.51-2.91-2.32-3.35-4.05-.37-1.88.22-3.71,1.11-5.35,0,0,.59.58.59.58-3.08,1.61-7.94,5.62-2.79,8.08,1.38.6,2.99.61,4.44.74h0Z"/>
            </g>
            <path class="cls-2" d="M28.57,32.3s-1.99.34-3.86-.13c-.04,0-.07-.02-.11-.03-.17-.05-.32-.09-.46-.15-.98-.33-1.87-.94-2.33-1.98-1.4-3.19,4.86-6.91,4.86-6.91,0,0-1.79,3.22-.83,5.85.47,1.29,1.13,2.12,1.69,2.62.58.54,1.05.73,1.05.73Z"/>
            <path class="cls-25" d="M25.82,28.95c.47,1.29,1.13,2.12,1.69,2.62-.62-.31-1.31-.84-2.01-1.69-2.59-3.11-4.44.89-1.38,2.12-.98-.33-1.87-.94-2.33-1.98-1.4-3.19,4.86-6.91,4.86-6.91,0,0-1.79,3.22-.83,5.85Z"/>
          </g>
          <g>
            <g>
              <path class="cls-26" d="M19.13,8.8s3.16,3.94,3.23,10.23c.07,6.3-1,9.88-.81,10.13s6.39-3.46,8.98-8.03-5.89-10.35-11.41-12.33Z"/>
              <path class="cls-34" d="M19.17,8.83c4.71,5.33,3.84,13.05,2.59,19.52-.04.24-.1.58-.08.72,0-.01,0,.03-.02-.02-.02-.02-.04-.02-.06-.02.07-.02.17-.06.25-.09,2.76-1.44,8.99-6.69,8.68-9.96-.13-.94-.59-1.87-1.2-2.69-2.52-3.33-6.45-5.63-10.14-7.46h0ZM19.09,8.77c4.55,1.33,11.51,5,12.39,10.1.37,3.91-6.63,9.1-9.9,10.45-.09,0-.17-.08-.17-.14-.06-.34.04-.57.06-.88.82-6.59,1.2-13.57-2.38-19.53h0Z"/>
            </g>
            <path class="cls-27" d="M30.54,21.13c-.73,1.28-1.73,2.49-2.81,3.56-2.78,2.79-6.04,4.66-6.18,4.48-.04-.05-.03-.22,0-.52.01-.1.03-.21.05-.34.22-1.44.8-4.61.74-9.27-.07-6.13-3.06-10.02-3.22-10.22,1.96.7,4.29,1.88,6.36,3.31,3.78,2.61,6.71,6.06,5.04,9.01Z"/>
            <path class="cls-25" d="M30.54,21.13c-.73,1.28-1.73,2.49-2.81,3.56-.05-.03-.07-.04-.07-.04,0,0,3.07-3.16.38-6.97-2.69-3.81-4.14-2.19-4.14-2.19,0,0-1.18-3.27-.87,3.16.21,4.53-.77,8.16-1.47,10.01.17-1.23.85-4.55.8-9.61-.07-6.13-3.06-10.02-3.22-10.22,5.51,1.98,14,7.75,11.4,12.32Z"/>
            <path class="cls-11" d="M23.46,17.45s.64,3.1.16,6.05-1.36,4.14-.95,4.33,5.14-3.61,5.88-5.82-.76-5.08-2.57-6.31c-1.81-1.23-1.46.89-1.46.89"/>
            <path class="cls-12" d="M30.54,21.13c-.73,1.28-1.73,2.49-2.81,3.56-2.78,2.79-6.04,4.66-6.18,4.48-.04-.05-.03-.22,0-.52.01-.1.03-.21.05-.34.77-1.86,1.58-5.17,1.44-9.12-.13-3.69.17-4.42.25-4.54-.5,1,.33,5.09-.02,8.11-.35,3.05-1.05,5.36-.99,5.61.06.24.75.01,3.13-2.13,2.39-2.13,5.97-5.9,4.69-8.88-.69-1.6-2.81-3.67-4.61-5.23,3.78,2.61,6.71,6.06,5.04,9.01Z"/>
            <ellipse class="cls-16" cx="23.64" cy="20.88" rx=".49" ry="1.37" transform="translate(-.49 .57) rotate(-1.37)"/>
            <ellipse class="cls-18" cx="24.32" cy="22.53" rx=".27" ry=".64" transform="translate(-.71 .79) rotate(-1.83)"/>
            <path class="cls-34" d="M24.4,17.01c-.87-3.04-2.59-5.91-5.13-7.83-.12-.09.03-.28.14-.18,2.51,2,4.18,4.93,4.98,8.01h0Z"/>
            <path class="cls-34" d="M22.21,10.49c1.38.73,2.73,1.71,3.5,3.11.47,1.19-1.01.25-1.39-.01-1.08-.76-2.21-1.71-3.04-2.66.7.55,2.48,1.96,3.17,2.48.31.2,1.56,1.23,1.19.22-.73-1.38-2.36-2.13-3.42-3.14h0Z"/>
          </g>
          <g>
            <g>
              <path class="cls-31" d="M20.47,6.95S24.82.88,31.63.44c6.82-.44,6.76,2.88,5.72,5.24-1.04,2.36,2.36,2.88,1.64,6.32-.72,3.43-3.06,5.06-8.49,2.49-5.43-2.57-10.58-4.06-10.58-4.06l.55-3.48Z"/>
              <path class="cls-34" d="M20.43,6.93C22.89,3.28,26.88.41,31.38.07c2.15-.08,4.86-.09,6.24,1.88.63,1.04.41,2.28.07,3.3-.2.53-.42,1-.34,1.5.06.5.39.93.72,1.35.68.81,1.38,1.88,1.34,3.09-.44,6.69-6.18,5.42-10.49,3.1-2.96-1.35-5.98-2.56-9.05-3.64-.12-.03-.19-.15-.17-.26.23-1.17.5-2.32.74-3.46h0ZM20.51,6.97c-.12,1.18-.22,2.35-.36,3.5l-.17-.26c3.19.82,6.3,1.9,9.32,3.2,3.85,1.9,8.72,3.78,9.47-2.22.27-1.68-1.44-2.8-1.76-4.38-.09-.6.2-1.17.39-1.64.36-.98.47-2.15-.1-3.01-1.34-1.7-3.91-1.4-5.87-1.29-4.3.42-8.07,2.96-10.93,6.11h0Z"/>
            </g>
            <path class="cls-32" d="M39,12c-.15.71-.38,1.34-.7,1.88-.74,1.26-1.94,1.99-3.75,1.9-1.15-.05-2.55-.43-4.22-1.23-5.43-2.57-10.41-4.11-10.41-4.11l.55-3.48s1.41-1.98,3.88-3.75c0,0,.01,0,.04-.03.05-.03.09-.05.13-.08h.01c1.84-1.3,4.25-2.47,7.09-2.64.16-.01.3-.02.44-.02,6.37-.27,6.3,2.95,5.28,5.26-1.05,2.36,2.36,2.88,1.64,6.32Z"/>
            <path class="cls-25" d="M38.3,13.87c-1.2,2.07-3.67,2.71-7.97.67-5.43-2.57-10.41-4.11-10.41-4.11l.55-3.48S24.82.88,31.63.44c.16-.01.3-.02.44-.02-1.73.83-4.53,2.31-5.72,3.73-1.77,2.12,2.44,2.13,2.88,2.93.45.81-4.09.73-4.5,2.25-.42,1.51,8.38,6.92,12.69,5.02.32-.14.62-.3.87-.47Z"/>
            <path class="cls-34" d="M20.06,8.79c.11-.16.3-.17.45-.25,3.94-1.5,8.35-2,12.45-.94-4.17-1-8.62-.4-12.55,1.22,0,0-.09.04-.09.04-.04.03.01-.02-.02-.04-.02.15-.26.11-.23-.04h0Z"/>
            <path class="cls-23" d="M39,12c-.15.71-.38,1.34-.7,1.88-.74,1.26-1.94,1.99-3.75,1.9.36-.02.7-.08,1.02-.18,2.47-.71,3.36-4.74,2.19-6.19-1.18-1.46-2.01-2.3-1.09-3.76.93-1.47,1.38-4.45-3.52-4.85-4.26-.34-7.76,1.74-8.6,2.29,1.84-1.29,4.25-2.46,7.09-2.64.16-.01.3-.02.44-.02,6.37-.27,6.3,2.95,5.28,5.26-1.05,2.36,2.36,2.88,1.64,6.32Z"/>
            <ellipse class="cls-14" cx="38.09" cy="11.52" rx="1.45" ry=".74" transform="translate(16.96 45.24) rotate(-74.76)"/>
            <ellipse class="cls-13" cx="36.52" cy="12.71" rx=".63" ry=".4" transform="translate(14.66 44.61) rotate(-74.76)"/>
            <path class="cls-15" d="M26.54,4.66s3.5-3.93,7.42-3.16c3.92.77,2.15,3.15,1.5,4.51s.7,1.9,1.77,4.12.22,4.96-4.93,3.56c-5.15-1.4-6.95-3.45-6.74-4.36s4.24-.67,4.9-1.7-2.97-1.51-3.56-2.07-.37-.9-.37-.9Z"/>
          </g>
          <g>
            <g>
              <path class="cls-28" d="M18.91,6.84S14.53.79,7.71.39C.89-.01.96,3.31,2.02,5.66S-.33,8.56.41,11.98c.74,3.43,3.09,5.05,8.51,2.44,5.42-2.6,10.56-4.11,10.56-4.11l-.57-3.48Z"/>
              <path class="cls-34" d="M18.86,6.86C15.99,3.73,12.2,1.21,7.9.81c-1.95-.1-4.53-.39-5.86,1.32-.56.86-.45,2.03-.08,3.01.19.47.48,1.04.4,1.64-.31,1.58-2.03,2.71-1.74,4.39.79,5.99,5.64,4.09,9.48,2.17,3.01-1.32,6.12-2.41,9.3-3.25,0,0-.17.26-.17.26-.14-1.15-.24-2.32-.37-3.5h0ZM18.95,6.83c.25,1.14.52,2.29.76,3.46.02.12-.05.23-.17.27-3.06,1.09-6.08,2.32-9.03,3.68C6.21,16.57.47,17.87,0,11.18c-.05-1.21.65-2.28,1.32-3.1.33-.42.66-.86.71-1.35.08-.5-.14-.97-.35-1.5-.35-1.02-.58-2.26.05-3.3C3.11-.05,5.82-.05,7.96.02c4.5.32,8.5,3.17,10.99,6.8h0Z"/>
            </g>
            <path class="cls-29" d="M.4,11.98c.15.71.38,1.34.71,1.87.74,1.26,1.95,1.99,3.76,1.88,1.15-.06,2.55-.44,4.22-1.25,5.42-2.6,10.39-4.17,10.39-4.17l-.57-3.47s-1.42-1.97-3.9-3.73c0,0-.01,0-.04-.03-.05-.03-.09-.05-.13-.08h-.01C12.97,1.71,10.54.56,7.71.39c-.16-.01-.3-.02-.44-.02C.9.13.98,3.35,2.02,5.66c1.06,2.35-2.35,2.9-1.61,6.32Z"/>
            <path class="cls-25" d="M1.11,13.86c1.21,2.06,3.68,2.69,7.98.63,5.42-2.6,10.39-4.17,10.39-4.17l-.57-3.47S14.53.79,7.71.39c-.16-.01-.3-.02-.44-.02,1.74.82,4.54,2.28,5.73,3.7,1.78,2.11-2.43,2.14-2.87,2.94-.44.81,4.09.71,4.51,2.23.43,1.51-8.34,6.96-12.66,5.08-.32-.14-.62-.3-.87-.47Z"/>
            <path class="cls-34" d="M19.09,8.72s.02.07-.02.04c-.05-.02-.22-.09-.28-.12-3.9-1.54-8.28-2.09-12.37-1.08,4.17-1.1,8.66-.59,12.65.95.09.04.19.06.26.17.02.15-.21.19-.23.04h0Z"/>
            <path class="cls-21" d="M.4,11.98c.15.71.38,1.34.71,1.87.74,1.26,1.95,1.99,3.76,1.88-.36-.02-.7-.08-1.02-.18-2.47-.69-3.38-4.72-2.22-6.18,1.17-1.46,2-2.31,1.08-3.77C1.77,4.14,1.3,1.16,6.2.74c4.25-.36,7.77,1.7,8.61,2.25C12.97,1.71,10.54.56,7.71.39c-.16-.01-.3-.02-.44-.02C.9.13.98,3.35,2.02,5.66c1.06,2.35-2.35,2.9-1.61,6.32Z"/>
            <ellipse class="cls-19" cx="1.3" cy="11.5" rx=".74" ry="1.45" transform="translate(-3.03 .77) rotate(-15.53)"/>
            <ellipse class="cls-20" cx="2.88" cy="12.68" rx=".4" ry=".63" transform="translate(-3.29 1.23) rotate(-15.53)"/>
            <path class="cls-22" d="M12.83,4.58S9.31.67,5.39,1.46c-3.92.79-2.13,3.16-1.47,4.52s-.69,1.9-1.75,4.12-.19,4.96,4.95,3.53c5.14-1.43,6.93-3.48,6.71-4.39s-4.24-.65-4.9-1.68,2.96-1.53,3.55-2.08.36-.9.36-.9Z"/>
          </g>
          <g>
            <g>
              <path class="cls-30" d="M23.26,9.67c0,1.57-1.63,1.61-3.65,1.61s-3.66-.02-3.66-1.59c0-.07,0-.15.01-.22.13-1.58,1.72-3.89,3.64-3.9.07,0,.15,0,.22.02,1.92.15,3.44,2.55,3.45,4.08Z"/>
              <path class="cls-34" d="M23.26,9.67c0,2.13-3.39,1.65-4.86,1.86-5.37.54-2.28-6.8,1.49-6.2,1.79.3,3.27,2.46,3.37,4.34h0ZM23.26,9.67c-.11-2.02-2.16-4.4-4.29-3.68-1.3.42-3.46,3.42-2.2,4.55.41.28,1.05.39,1.66.46,1.47,0,4.72.9,4.84-1.33h0Z"/>
            </g>
            <path class="cls-33" d="M23.03,9.67c0,1.32-1.15,1.55-2.72,1.6h-.01c-.3.01-.61.01-.93.01-2.01,0-3.66-.02-3.66-1.59,0-.07,0-.15.01-.22.03-.34.12-.71.28-1.09.54-1.38,1.85-2.81,3.36-2.81.07,0,.15,0,.22.02,1.92.15,3.44,2.55,3.45,4.08Z"/>
            <path class="cls-24" d="M23.26,9.67c0,1.57-1.63,1.61-3.65,1.61s-3.66-.02-3.66-1.59c0-.07,0-.15.01-.22,2.79.08,5.14-.41,4.57-2.53-.14-.52-.39-.97-.71-1.35,1.92.15,3.44,2.55,3.45,4.08Z"/>
          </g>
          <path class="cls-17" d="M23.06,9.62c.02,1.32-1.12,1.57-2.69,1.64,3.77-.55,2.37-4.24-.46-4.95-1.72-.43-3.09.96-3.89,2.13.52-1.39,1.8-2.84,3.31-2.86.07,0,.15,0,.22.02,1.92.12,3.48,2.5,3.51,4.03Z"/>
        </g>
      </g>
    </g>
  </g>
</svg>